<mxfile host="drawio-plugin" modified="2022-03-11T07:38:31.459Z" agent="5.0 (Windows NT 6.2; Win64; x64) AppleWebKit/537.36 (KHTML, like Gecko) Chrome/89.0.4389.114 Safari/537.36" etag="roZ5MxdHYLejMfZTX5_n" version="15.5.4" type="embed"><diagram id="23iRSUPoRavnBvh4doch" name="Page-1"><mxGraphModel dx="873" dy="508" grid="1" gridSize="10" guides="1" tooltips="1" connect="1" arrows="1" fold="1" page="1" pageScale="1" pageWidth="827" pageHeight="1169" math="0" shadow="0"><root><mxCell id="0"/><mxCell id="1" parent="0"/><mxCell id="2" value="用户" style="shape=umlActor;verticalLabelPosition=bottom;verticalAlign=top;html=1;outlineConnect=0;" vertex="1" parent="1"><mxGeometry x="30" y="340" width="30" height="60" as="geometry"/></mxCell><mxCell id="3" value="" style="endArrow=classic;html=1;rounded=0;" edge="1" parent="1"><mxGeometry width="50" height="50" relative="1" as="geometry"><mxPoint x="60" y="330" as="sourcePoint"/><mxPoint x="110" y="280" as="targetPoint"/></mxGeometry></mxCell><mxCell id="5" value="访问项目首页" style="text;html=1;strokeColor=none;fillColor=none;align=center;verticalAlign=middle;whiteSpace=wrap;rounded=0;" vertex="1" parent="1"><mxGeometry x="110" y="250" width="80" height="30" as="geometry"/></mxCell><mxCell id="6" value="" style="endArrow=classic;html=1;rounded=0;" edge="1" parent="1"><mxGeometry width="50" height="50" relative="1" as="geometry"><mxPoint x="70" y="360" as="sourcePoint"/><mxPoint x="120" y="360" as="targetPoint"/></mxGeometry></mxCell><mxCell id="8" value="" style="endArrow=classic;html=1;rounded=0;" edge="1" parent="1"><mxGeometry width="50" height="50" relative="1" as="geometry"><mxPoint x="70" y="400" as="sourcePoint"/><mxPoint x="120" y="400" as="targetPoint"/></mxGeometry></mxCell><mxCell id="9" value="" style="endArrow=classic;html=1;rounded=0;entryX=0;entryY=0.25;entryDx=0;entryDy=0;" edge="1" parent="1" target="12"><mxGeometry width="50" height="50" relative="1" as="geometry"><mxPoint x="70" y="430" as="sourcePoint"/><mxPoint x="120" y="480" as="targetPoint"/></mxGeometry></mxCell><mxCell id="10" value="点击注册" style="text;html=1;strokeColor=none;fillColor=none;align=center;verticalAlign=middle;whiteSpace=wrap;rounded=0;" vertex="1" parent="1"><mxGeometry x="120" y="300" width="60" height="30" as="geometry"/></mxCell><mxCell id="11" value="点击登录" style="text;html=1;strokeColor=none;fillColor=none;align=center;verticalAlign=middle;whiteSpace=wrap;rounded=0;" vertex="1" parent="1"><mxGeometry x="120" y="350" width="60" height="30" as="geometry"/></mxCell><mxCell id="72" value="" style="edgeStyle=orthogonalEdgeStyle;rounded=0;orthogonalLoop=1;jettySize=auto;html=1;" edge="1" parent="1" source="12" target="70"><mxGeometry relative="1" as="geometry"/></mxCell><mxCell id="12" value="注销登录" style="text;html=1;strokeColor=none;fillColor=none;align=center;verticalAlign=middle;whiteSpace=wrap;rounded=0;" vertex="1" parent="1"><mxGeometry x="120" y="500" width="60" height="30" as="geometry"/></mxCell><mxCell id="15" value="" style="endArrow=classic;html=1;rounded=0;entryX=0;entryY=1;entryDx=0;entryDy=0;exitX=0.5;exitY=0;exitDx=0;exitDy=0;" edge="1" parent="1" source="5" target="16"><mxGeometry width="50" height="50" relative="1" as="geometry"><mxPoint x="120.00153846153844" y="200" as="sourcePoint"/><mxPoint x="191.54" y="160" as="targetPoint"/></mxGeometry></mxCell><mxCell id="16" value="点击LOGO，返回首页" style="text;html=1;strokeColor=none;fillColor=none;align=center;verticalAlign=middle;whiteSpace=wrap;rounded=0;" vertex="1" parent="1"><mxGeometry x="240" y="110" width="140" height="30" as="geometry"/></mxCell><mxCell id="17" value="" style="endArrow=classic;html=1;rounded=0;entryX=0;entryY=0;entryDx=0;entryDy=0;" edge="1" parent="1" target="18"><mxGeometry width="50" height="50" relative="1" as="geometry"><mxPoint x="70" y="410" as="sourcePoint"/><mxPoint x="120" y="440" as="targetPoint"/></mxGeometry></mxCell><mxCell id="18" value="滚动至页面底部，点击切换页面" style="text;html=1;strokeColor=none;fillColor=none;align=center;verticalAlign=middle;whiteSpace=wrap;rounded=0;" vertex="1" parent="1"><mxGeometry x="120" y="450" width="100" height="30" as="geometry"/></mxCell><mxCell id="19" value="" style="endArrow=classic;html=1;rounded=0;" edge="1" parent="1"><mxGeometry width="50" height="50" relative="1" as="geometry"><mxPoint x="60" y="350" as="sourcePoint"/><mxPoint x="110" y="320" as="targetPoint"/></mxGeometry></mxCell><mxCell id="20" value="点击详细，跳转博客详情页面" style="text;html=1;strokeColor=none;fillColor=none;align=center;verticalAlign=middle;whiteSpace=wrap;rounded=0;" vertex="1" parent="1"><mxGeometry x="120" y="390" width="90" height="30" as="geometry"/></mxCell><mxCell id="22" value="" style="endArrow=classic;html=1;rounded=0;exitX=1;exitY=0.25;exitDx=0;exitDy=0;entryX=0;entryY=0.5;entryDx=0;entryDy=0;" edge="1" parent="1" source="10" target="23"><mxGeometry width="50" height="50" relative="1" as="geometry"><mxPoint x="170" y="320" as="sourcePoint"/><mxPoint x="230" y="270" as="targetPoint"/></mxGeometry></mxCell><mxCell id="23" value="跳转注册页面" style="text;html=1;strokeColor=none;fillColor=none;align=center;verticalAlign=middle;whiteSpace=wrap;rounded=0;" vertex="1" parent="1"><mxGeometry x="250" y="170" width="80" height="30" as="geometry"/></mxCell><mxCell id="27" value="" style="endArrow=classic;html=1;rounded=0;exitX=1;exitY=0.25;exitDx=0;exitDy=0;" edge="1" parent="1"><mxGeometry width="50" height="50" relative="1" as="geometry"><mxPoint x="180" y="357.5" as="sourcePoint"/><mxPoint x="230" y="320" as="targetPoint"/></mxGeometry></mxCell><mxCell id="28" value="跳转登录页面" style="text;html=1;strokeColor=none;fillColor=none;align=center;verticalAlign=middle;whiteSpace=wrap;rounded=0;" vertex="1" parent="1"><mxGeometry x="240" y="300" width="80" height="30" as="geometry"/></mxCell><mxCell id="29" value="" style="endArrow=classic;html=1;rounded=0;" edge="1" parent="1"><mxGeometry width="50" height="50" relative="1" as="geometry"><mxPoint x="210" y="400" as="sourcePoint"/><mxPoint x="260" y="400" as="targetPoint"/></mxGeometry></mxCell><mxCell id="30" value="是否已登录?" style="rhombus;whiteSpace=wrap;html=1;" vertex="1" parent="1"><mxGeometry x="260" y="380" width="100" height="40" as="geometry"/></mxCell><mxCell id="32" value="点击注册" style="text;html=1;strokeColor=none;fillColor=none;align=center;verticalAlign=middle;whiteSpace=wrap;rounded=0;" vertex="1" parent="1"><mxGeometry x="384" y="240" width="60" height="30" as="geometry"/></mxCell><mxCell id="33" value="" style="endArrow=classic;html=1;rounded=0;exitX=1;exitY=0.25;exitDx=0;exitDy=0;entryX=0;entryY=0.75;entryDx=0;entryDy=0;" edge="1" parent="1" source="28" target="32"><mxGeometry width="50" height="50" relative="1" as="geometry"><mxPoint x="320" y="320" as="sourcePoint"/><mxPoint x="370" y="270" as="targetPoint"/></mxGeometry></mxCell><mxCell id="35" value="点击登录" style="text;html=1;strokeColor=none;fillColor=none;align=center;verticalAlign=middle;whiteSpace=wrap;rounded=0;" vertex="1" parent="1"><mxGeometry x="300" y="240" width="60" height="30" as="geometry"/></mxCell><mxCell id="36" value="" style="endArrow=classic;html=1;rounded=0;exitX=0.75;exitY=1;exitDx=0;exitDy=0;entryX=0.5;entryY=0;entryDx=0;entryDy=0;" edge="1" parent="1" source="23" target="35"><mxGeometry width="50" height="50" relative="1" as="geometry"><mxPoint x="320" y="260" as="sourcePoint"/><mxPoint x="370" y="210" as="targetPoint"/></mxGeometry></mxCell><mxCell id="39" value="" style="endArrow=classic;html=1;rounded=0;exitX=0;exitY=0.25;exitDx=0;exitDy=0;entryX=1;entryY=0.5;entryDx=0;entryDy=0;" edge="1" parent="1" source="32" target="23"><mxGeometry width="50" height="50" relative="1" as="geometry"><mxPoint x="370" y="255" as="sourcePoint"/><mxPoint x="320" y="220" as="targetPoint"/></mxGeometry></mxCell><mxCell id="41" value="" style="endArrow=classic;html=1;rounded=0;exitX=0.5;exitY=0;exitDx=0;exitDy=0;" edge="1" parent="1" source="30" target="28"><mxGeometry width="50" height="50" relative="1" as="geometry"><mxPoint x="340" y="390" as="sourcePoint"/><mxPoint x="380" y="360" as="targetPoint"/></mxGeometry></mxCell><mxCell id="61" value="未登录" style="edgeLabel;html=1;align=center;verticalAlign=middle;resizable=0;points=[];" vertex="1" connectable="0" parent="41"><mxGeometry x="0.2868" relative="1" as="geometry"><mxPoint x="-15" y="17" as="offset"/></mxGeometry></mxCell><mxCell id="42" value="" style="endArrow=classic;html=1;rounded=0;exitX=0.5;exitY=1;exitDx=0;exitDy=0;entryX=0;entryY=0.5;entryDx=0;entryDy=0;" edge="1" parent="1"><mxGeometry width="50" height="50" relative="1" as="geometry"><mxPoint x="330" y="410" as="sourcePoint"/><mxPoint x="464" y="425" as="targetPoint"/><Array as="points"/></mxGeometry></mxCell><mxCell id="62" value="已登录" style="edgeLabel;html=1;align=center;verticalAlign=middle;resizable=0;points=[];" vertex="1" connectable="0" parent="42"><mxGeometry x="-0.4264" relative="1" as="geometry"><mxPoint x="10" y="-10" as="offset"/></mxGeometry></mxCell><mxCell id="43" value="" style="endArrow=classic;html=1;rounded=0;exitX=0.25;exitY=1;exitDx=0;exitDy=0;entryX=0.5;entryY=0;entryDx=0;entryDy=0;" edge="1" parent="1" source="23" target="44"><mxGeometry width="50" height="50" relative="1" as="geometry"><mxPoint x="300" y="250" as="sourcePoint"/><mxPoint x="370" y="150" as="targetPoint"/></mxGeometry></mxCell><mxCell id="44" value="注册成功" style="text;html=1;strokeColor=none;fillColor=none;align=center;verticalAlign=middle;whiteSpace=wrap;rounded=0;" vertex="1" parent="1"><mxGeometry x="230" y="240" width="60" height="30" as="geometry"/></mxCell><mxCell id="48" value="" style="endArrow=classic;html=1;rounded=0;exitX=1;exitY=0.5;exitDx=0;exitDy=0;" edge="1" parent="1" source="28"><mxGeometry width="50" height="50" relative="1" as="geometry"><mxPoint x="330" y="330" as="sourcePoint"/><mxPoint x="360" y="315" as="targetPoint"/></mxGeometry></mxCell><mxCell id="56" value="" style="edgeStyle=orthogonalEdgeStyle;rounded=0;orthogonalLoop=1;jettySize=auto;html=1;" edge="1" parent="1" source="49" target="51"><mxGeometry relative="1" as="geometry"/></mxCell><mxCell id="49" value="登录成功" style="text;html=1;strokeColor=none;fillColor=none;align=center;verticalAlign=middle;whiteSpace=wrap;rounded=0;" vertex="1" parent="1"><mxGeometry x="351" y="300" width="60" height="30" as="geometry"/></mxCell><mxCell id="51" value="跳转至首页，并展示 创建博客图标 和 当前用户头像" style="text;html=1;strokeColor=none;fillColor=none;align=center;verticalAlign=middle;whiteSpace=wrap;rounded=0;" vertex="1" parent="1"><mxGeometry x="444" y="300" width="150" height="30" as="geometry"/></mxCell><mxCell id="59" value="" style="endArrow=classic;html=1;rounded=0;exitX=0.5;exitY=1;exitDx=0;exitDy=0;entryX=0.5;entryY=0;entryDx=0;entryDy=0;" edge="1" parent="1" source="44" target="28"><mxGeometry width="50" height="50" relative="1" as="geometry"><mxPoint x="290" y="240" as="sourcePoint"/><mxPoint x="260" y="270" as="targetPoint"/></mxGeometry></mxCell><mxCell id="60" value="" style="endArrow=classic;html=1;rounded=0;exitX=0.5;exitY=1;exitDx=0;exitDy=0;" edge="1" parent="1" source="35" target="28"><mxGeometry width="50" height="50" relative="1" as="geometry"><mxPoint x="310" y="240" as="sourcePoint"/><mxPoint x="330" y="260" as="targetPoint"/></mxGeometry></mxCell><mxCell id="63" value="跳转至博客详情页" style="text;html=1;strokeColor=none;fillColor=none;align=center;verticalAlign=middle;whiteSpace=wrap;rounded=0;" vertex="1" parent="1"><mxGeometry x="444" y="420" width="106" height="30" as="geometry"/></mxCell><mxCell id="66" value="" style="endArrow=classic;html=1;rounded=0;exitX=1;exitY=0.5;exitDx=0;exitDy=0;entryX=0;entryY=0.5;entryDx=0;entryDy=0;" edge="1" parent="1" target="68"><mxGeometry width="50" height="50" relative="1" as="geometry"><mxPoint x="220" y="465" as="sourcePoint"/><mxPoint x="301" y="465" as="targetPoint"/><Array as="points"><mxPoint x="270" y="465"/></Array></mxGeometry></mxCell><mxCell id="68" value="跳转至博客分页" style="text;html=1;strokeColor=none;fillColor=none;align=center;verticalAlign=middle;whiteSpace=wrap;rounded=0;" vertex="1" parent="1"><mxGeometry x="305" y="450" width="106" height="30" as="geometry"/></mxCell><mxCell id="70" value="跳转至首页" style="text;html=1;strokeColor=none;fillColor=none;align=center;verticalAlign=middle;whiteSpace=wrap;rounded=0;" vertex="1" parent="1"><mxGeometry x="240" y="500" width="80" height="30" as="geometry"/></mxCell><mxCell id="71" value="" style="edgeStyle=orthogonalEdgeStyle;rounded=0;orthogonalLoop=1;jettySize=auto;html=1;exitX=1;exitY=0.5;exitDx=0;exitDy=0;" edge="1" target="70" parent="1" source="12"><mxGeometry relative="1" as="geometry"><mxPoint x="180" y="515" as="sourcePoint"/></mxGeometry></mxCell><mxCell id="74" value="" style="endArrow=classic;html=1;rounded=0;exitX=0.5;exitY=0;exitDx=0;exitDy=0;entryX=0;entryY=0.5;entryDx=0;entryDy=0;" edge="1" parent="1" source="63"><mxGeometry width="50" height="50" relative="1" as="geometry"><mxPoint x="600" y="400" as="sourcePoint"/><mxPoint x="660" y="445" as="targetPoint"/></mxGeometry></mxCell><mxCell id="79" value="" style="endArrow=classic;html=1;rounded=0;exitX=1;exitY=0.5;exitDx=0;exitDy=0;entryX=0;entryY=0.5;entryDx=0;entryDy=0;" edge="1" target="80" parent="1" source="63"><mxGeometry width="50" height="50" relative="1" as="geometry"><mxPoint x="555.5" y="405" as="sourcePoint"/><mxPoint x="561.5" y="380" as="targetPoint"/></mxGeometry></mxCell><mxCell id="80" value="鼠标浮在 创建博客图标或 当前用户头像" style="text;html=1;strokeColor=none;fillColor=none;align=center;verticalAlign=middle;whiteSpace=wrap;rounded=0;" vertex="1" parent="1"><mxGeometry x="660" y="370" width="80" height="30" as="geometry"/></mxCell><mxCell id="82" value="" style="endArrow=classic;html=1;rounded=0;exitX=0.42;exitY=1;exitDx=0;exitDy=0;entryX=0;entryY=0;entryDx=0;entryDy=0;exitPerimeter=0;" edge="1" parent="1" source="51" target="80"><mxGeometry width="50" height="50" relative="1" as="geometry"><mxPoint x="565.5" y="415" as="sourcePoint"/><mxPoint x="610" y="380" as="targetPoint"/></mxGeometry></mxCell><mxCell id="88" value="" style="edgeStyle=orthogonalEdgeStyle;rounded=0;orthogonalLoop=1;jettySize=auto;html=1;" edge="1" parent="1" source="84" target="87"><mxGeometry relative="1" as="geometry"/></mxCell><mxCell id="84" value="点击创建博客图标" style="text;html=1;strokeColor=none;fillColor=none;align=center;verticalAlign=middle;whiteSpace=wrap;rounded=0;" vertex="1" parent="1"><mxGeometry x="640" y="270" width="100" height="30" as="geometry"/></mxCell><mxCell id="85" value="&lt;span&gt;点击博客作者头像或显示名&lt;/span&gt;" style="text;html=1;align=center;verticalAlign=middle;resizable=0;points=[];autosize=1;strokeColor=none;fillColor=none;" vertex="1" parent="1"><mxGeometry x="650" y="440" width="160" height="20" as="geometry"/></mxCell><mxCell id="86" value="" style="endArrow=classic;html=1;rounded=0;exitX=1;exitY=0.5;exitDx=0;exitDy=0;entryX=0;entryY=0.5;entryDx=0;entryDy=0;" edge="1" parent="1" source="51" target="84"><mxGeometry width="50" height="50" relative="1" as="geometry"><mxPoint x="543" y="340" as="sourcePoint"/><mxPoint x="670" y="380" as="targetPoint"/></mxGeometry></mxCell><mxCell id="87" value="跳转至创建博客页面" style="text;html=1;align=center;verticalAlign=middle;resizable=0;points=[];autosize=1;strokeColor=none;fillColor=none;" vertex="1" parent="1"><mxGeometry x="630" y="220" width="120" height="20" as="geometry"/></mxCell></root></mxGraphModel></diagram></mxfile>